<svg width="1222" height="1054" viewBox="0 0 1222 1054" fill="none" xmlns="http://www.w3.org/2000/svg">
<path fill-rule="evenodd" clip-rule="evenodd" d="M289.572 0C269.958 0 250.693 5.68515 234.589 16.8827C135.719 85.6321 72.5134 151.74 14.8435 241.256C4.92922 256.646 0 274.681 0 292.987V308.709V745.291V761.013C0 779.319 4.92922 797.354 14.8435 812.744C72.5134 902.26 135.719 968.368 234.589 1037.12C250.693 1048.31 269.958 1054 289.572 1054H357.915H864.085H932.428C952.042 1054 971.307 1048.31 987.411 1037.12C1086.28 968.368 1149.49 902.26 1207.16 812.744C1217.07 797.354 1222 779.319 1222 761.013V745.291V308.709V292.987C1222 274.681 1217.07 256.646 1207.16 241.256C1149.49 151.74 1086.28 85.6321 987.411 16.8827C971.307 5.68515 952.042 0 932.428 0H864.085H357.915H289.572Z" fill="#5F5F61"/>
<path fill-rule="evenodd" clip-rule="evenodd" d="M294.544 17C275.058 17 255.912 22.6101 239.874 33.6773C142.849 100.631 80.702 165.044 24.0451 252.116C13.9935 267.564 9 285.719 9 304.149V318.68V745.32V759.851C9 778.281 13.9935 796.436 24.0451 811.884C80.702 898.956 142.849 963.369 239.874 1030.32C255.912 1041.39 275.058 1047 294.544 1047H361.643H860.357H927.456C946.942 1047 966.088 1041.39 982.126 1030.32C1079.15 963.369 1141.3 898.956 1197.95 811.884C1208.01 796.436 1213 778.281 1213 759.851V745.32V318.68V304.149C1213 285.719 1208.01 267.564 1197.95 252.116C1141.3 165.044 1079.15 100.631 982.126 33.6773C966.088 22.6101 946.942 17 927.456 17H860.357H361.643H294.544Z" fill="#4E4E50"/>
<path fill-rule="evenodd" clip-rule="evenodd" d="M313.056 110C293.452 110 274.164 115.618 258.213 127.014C193.788 173.04 147.94 221.197 103.645 289.933C93.8163 305.184 89 323.073 89 341.217V354.273V699.727V712.783C89 730.927 93.8163 748.816 103.645 764.067C147.94 832.803 193.788 880.96 258.213 926.986C274.164 938.382 293.452 944 313.056 944H393.609H824.391H904.944C924.548 944 943.836 938.382 959.787 926.986C1024.21 880.96 1070.06 832.803 1114.36 764.067C1124.18 748.816 1129 730.927 1129 712.783V699.727V354.273V341.217C1129 323.073 1124.18 305.184 1114.36 289.933C1070.06 221.197 1024.21 173.04 959.787 127.014C943.836 115.618 924.548 110 904.944 110H824.391H393.609H313.056Z" fill="#3F3F3F"/>
<path fill-rule="evenodd" clip-rule="evenodd" d="M319.501 136C297.147 136 275.352 143.401 258.019 157.517C187.831 214.682 160.676 247.76 121.229 307.212C110.548 323.309 105 342.28 105 361.598V370.315V701.685V710.402C105 729.72 110.548 748.691 121.229 764.788C160.676 824.24 187.831 857.318 258.019 914.483C275.352 928.599 297.147 936 319.501 936H400.529H818.471H899.499C921.853 936 943.648 928.599 960.981 914.483C1031.17 857.318 1058.32 824.24 1097.77 764.788C1108.45 748.691 1114 729.72 1114 710.402V701.685V370.315V361.598C1114 342.28 1108.45 323.309 1097.77 307.212C1058.32 247.76 1031.17 214.682 960.981 157.517C943.648 143.401 921.853 136 899.499 136H818.471H400.529H319.501Z" fill="#131313"/>
<mask id="path-5-inside-1_12_130" fill="white">
<path fill-rule="evenodd" clip-rule="evenodd" d="M330.794 211C318.377 211 306.379 215.632 297.182 223.974C252.981 264.068 237.742 279.042 195.723 340.86C190.149 349.062 187.194 358.795 187.194 368.711V406.36V682.64V720.289C187.194 730.205 190.149 739.938 195.723 748.14C237.742 809.958 252.981 824.932 297.182 865.026C306.379 873.368 318.377 878 330.794 878H434.103H783.285H886.594C899.01 878 911.009 873.368 920.206 865.026C964.407 824.932 979.646 809.958 1021.66 748.14C1027.24 739.938 1030.19 730.205 1030.19 720.289V682.64V406.36V368.711C1030.19 358.795 1027.24 349.062 1021.66 340.86C979.646 279.042 964.407 264.068 920.206 223.974C911.009 215.632 899.01 211 886.594 211H783.285H434.103H330.794Z"/>
</mask>
<path d="M297.182 223.974L289.12 215.086V215.086L297.182 223.974ZM195.723 340.86L185.799 334.114H185.799L195.723 340.86ZM195.723 748.14L205.648 741.394L205.648 741.394L195.723 748.14ZM297.182 865.026L305.245 856.138L305.245 856.138L297.182 865.026ZM920.206 865.026L912.143 856.138L920.206 865.026ZM1021.66 748.14L1011.74 741.394L1011.74 741.394L1021.66 748.14ZM1021.66 340.86L1011.74 347.606L1011.74 347.606L1021.66 340.86ZM920.206 223.974L912.143 232.862V232.862L920.206 223.974ZM305.245 232.862C312.234 226.522 321.359 223 330.794 223V199C315.396 199 300.524 204.742 289.12 215.086L305.245 232.862ZM205.648 347.606C247.055 286.688 261.636 272.418 305.245 232.862L289.12 215.086C244.326 255.717 228.43 271.397 185.799 334.114L205.648 347.606ZM199.194 368.711C199.194 361.168 201.444 353.791 205.648 347.606L185.799 334.114C178.854 344.332 175.194 356.422 175.194 368.711H199.194ZM199.194 406.36V368.711H175.194V406.36H199.194ZM175.194 406.36V682.64H199.194V406.36H175.194ZM175.194 682.64V720.289H199.194V682.64H175.194ZM175.194 720.289C175.194 732.578 178.854 744.668 185.799 754.886L205.648 741.394C201.444 735.209 199.194 727.832 199.194 720.289H175.194ZM185.799 754.886C228.43 817.603 244.326 833.283 289.12 873.914L305.245 856.138C261.636 816.582 247.055 802.312 205.648 741.394L185.799 754.886ZM289.12 873.914C300.524 884.258 315.396 890 330.794 890V866C321.359 866 312.234 862.478 305.245 856.138L289.12 873.914ZM330.794 890H434.103V866H330.794V890ZM434.103 890H783.285V866H434.103V890ZM886.594 866H783.285V890H886.594V866ZM912.143 856.138C905.154 862.478 896.029 866 886.594 866V890C901.992 890 916.864 884.258 928.268 873.914L912.143 856.138ZM1011.74 741.394C970.333 802.312 955.752 816.582 912.143 856.138L928.268 873.914C973.062 833.283 988.958 817.603 1031.59 754.886L1011.74 741.394ZM1018.19 720.289C1018.19 727.832 1015.94 735.209 1011.74 741.394L1031.59 754.886C1038.53 744.668 1042.19 732.578 1042.19 720.289H1018.19ZM1018.19 682.64V720.289H1042.19V682.64H1018.19ZM1042.19 682.64V406.36H1018.19V682.64H1042.19ZM1018.19 368.711V406.36H1042.19V368.711H1018.19ZM1011.74 347.606C1015.94 353.791 1018.19 361.168 1018.19 368.711H1042.19C1042.19 356.422 1038.53 344.332 1031.59 334.114L1011.74 347.606ZM912.143 232.862C955.752 272.418 970.333 286.688 1011.74 347.606L1031.59 334.114C988.958 271.397 973.062 255.717 928.268 215.086L912.143 232.862ZM886.594 223C896.029 223 905.154 226.522 912.143 232.862L928.268 215.086C916.864 204.742 901.992 199 886.594 199V223ZM783.285 223H886.594V199H783.285V223ZM783.285 199H434.103V223H783.285V199ZM330.794 223H434.103V199H330.794V223Z" fill="#D0020E" mask="url(#path-5-inside-1_12_130)"/>
<path fill-rule="evenodd" clip-rule="evenodd" d="M340.963 237C328.746 237 316.908 241.455 307.857 249.662C266.521 287.144 253.256 304.259 220.852 351.183C215.103 359.507 212.024 369.416 212.024 379.532V417.422V672.578V710.468C212.024 720.584 215.103 730.493 220.852 738.817C253.256 785.741 266.521 802.856 307.857 840.338C316.908 848.545 328.746 853 340.963 853H443.703H771.346H874.085C886.303 853 898.141 848.545 907.191 840.338C948.527 802.856 961.792 785.741 994.197 738.817C999.945 730.493 1003.02 720.584 1003.02 710.468V672.578V417.422V379.532C1003.02 369.416 999.945 359.507 994.197 351.183C961.792 304.259 948.527 287.144 907.191 249.662C898.141 241.455 886.303 237 874.085 237H771.346H443.703H340.963Z" fill="#454136"/>
<rect x="369" y="809" width="193" height="28" rx="14" fill="#C2F5F6" fill-opacity="0.5"/>
<rect x="282" y="776" width="355" height="22" rx="11" fill="#C2F5F6" fill-opacity="0.5"/>
<rect x="644" y="808" width="252" height="22" rx="11" fill="#EFEFED" fill-opacity="0.5"/>
<rect x="751" y="774" width="145" height="22" rx="11" fill="#EFEFED" fill-opacity="0.5"/>
<rect x="724" y="291" width="172" height="22" rx="11" fill="#EFEFED" fill-opacity="0.5"/>
<rect x="636" y="256" width="260" height="22" rx="11" fill="#EFEFED" fill-opacity="0.5"/>
<path d="M439.5 324L380 294.82V258C380 249.716 386.716 243 395 243H484C492.284 243 499 249.716 499 258V294.82L439.5 324Z" fill="#FBED4C" fill-opacity="0.5"/>
<rect x="532" y="900" width="316" height="26" rx="13" fill="#ECD024" fill-opacity="0.5"/>
<rect x="368" y="900" width="140" height="26" rx="13" fill="#ECD024" fill-opacity="0.5"/>
<rect x="597" y="170" width="131" height="24" rx="12" fill="#ECD024" fill-opacity="0.5"/>
<rect x="767" y="169" width="122" height="24" rx="12" fill="#ECD024" fill-opacity="0.5"/>
<rect x="345" y="161" width="189" height="35" rx="17.5" fill="#EFEFED" fill-opacity="0.5"/>
<rect x="140" y="366" width="22" height="152" rx="11" fill="#EFEFED" fill-opacity="0.5"/>
<rect x="140" y="602" width="22" height="122" rx="11" fill="#EFEFED" fill-opacity="0.5"/>
<rect x="1055" y="366" width="22" height="114" rx="11" fill="#EFEFED" fill-opacity="0.5"/>
<rect x="1055" y="598" width="22" height="122" rx="11" fill="#EFEFED" fill-opacity="0.5"/>
<rect x="264" y="332" width="688" height="425" rx="33" fill="#F4F3F1"/>
<rect x="279" y="347" width="657" height="396" rx="20" fill="#A9A896"/>
<rect x="340" y="565" width="557" height="152" rx="25" fill="#241F1B" fill-opacity="0.15"/>
<rect x="667" y="405" width="216" height="94" rx="25" fill="#241F1B" fill-opacity="0.15"/>
<rect x="340" y="405" width="126" height="74" rx="25" fill="#241F1B" fill-opacity="0.15"/>
</svg>
